<svg width="182" height="32" viewBox="0 0 182 32" fill="none" xmlns="http://www.w3.org/2000/svg">
<path d="M0.469708 31.6163C0.352289 31.6163 0.293579 31.5429 0.293579 31.3962L0.381644 1.14599C0.381644 1.02857 0.440353 0.96986 0.557773 0.96986H9.45229C11.0375 0.96986 12.4905 1.36615 13.8115 2.15873C15.1618 2.92196 16.2333 3.96405 17.0258 5.28502C17.8184 6.57663 18.2147 8.04438 18.2147 9.68825C18.2147 10.7744 18.0533 11.7578 17.7304 12.6384C17.4075 13.4897 17.0258 14.2236 16.5855 14.84C16.1452 15.4271 15.7489 15.8674 15.3966 16.161C16.9818 17.9223 17.7744 19.9918 17.7744 22.3695L17.8184 31.3962C17.8184 31.5429 17.745 31.6163 17.5983 31.6163H12.6226C12.5052 31.6163 12.4465 31.5723 12.4465 31.4842V22.3695C12.4465 21.3128 12.0649 20.4028 11.3016 19.6395C10.5678 18.847 9.65777 18.4507 8.57164 18.4507H5.66551L5.62148 31.3962C5.62148 31.5429 5.56277 31.6163 5.44535 31.6163H0.469708ZM5.66551 13.1668H9.45229C10.3623 13.1668 11.1695 12.8292 11.8741 12.1541C12.5786 11.4789 12.9308 10.657 12.9308 9.68825C12.9308 8.74889 12.5786 7.94163 11.8741 7.26647C11.1989 6.59131 10.3916 6.25373 9.45229 6.25373H5.66551V13.1668Z" fill="#20802F"/>
<path d="M21.7118 31.6163C21.5944 31.6163 21.5357 31.5429 21.5357 31.3962L21.5797 1.14599C21.5797 1.02857 21.6384 0.96986 21.7559 0.96986H35.8902C36.0076 0.96986 36.0663 1.04325 36.0663 1.19002V6.12163C36.0663 6.23905 36.0076 6.29776 35.8902 6.29776H26.8636V13.1668H35.8902C36.0076 13.1668 36.0663 13.2255 36.0663 13.3429L36.1104 18.3186C36.1104 18.436 36.0517 18.4947 35.9343 18.4947H26.8636V26.2003H35.9343C36.0517 26.2003 36.1104 26.2737 36.1104 26.4205V31.4402C36.1104 31.5576 36.0517 31.6163 35.9343 31.6163H21.7118Z" fill="#20802F"/>
<path d="M40.246 31.6163C40.0992 31.6163 40.0258 31.5429 40.0258 31.3962L40.1139 1.14599C40.1139 1.02857 40.1726 0.96986 40.29 0.96986H48.7442C51.4448 0.96986 53.5731 1.7918 55.1289 3.43567C56.714 5.07954 57.5066 7.3105 57.5066 10.1286C57.5066 12.2128 57.0957 14.0181 56.2737 15.5445C55.4518 17.071 54.3803 18.2452 53.0594 19.0671C51.7384 19.8891 50.3 20.3 48.7442 20.3H45.3977V31.3962C45.3977 31.5429 45.3244 31.6163 45.1776 31.6163H40.246ZM45.3977 14.9721H48.7442C49.6836 14.9721 50.4908 14.5318 51.166 13.6512C51.8705 12.7412 52.2228 11.567 52.2228 10.1286C52.2228 8.98373 51.9145 8.04438 51.2981 7.3105C50.6816 6.57663 49.8303 6.2097 48.7442 6.2097L45.3977 6.25373V14.9721Z" fill="#20802F"/>
<path d="M60.6701 31.6163C60.5526 31.6163 60.4939 31.5429 60.4939 31.3962L60.538 1.14599C60.538 1.02857 60.5967 0.96986 60.7141 0.96986H74.8485C74.9659 0.96986 75.0246 1.04325 75.0246 1.19002V6.12163C75.0246 6.23905 74.9659 6.29776 74.8485 6.29776H65.8218V13.1668H74.8485C74.9659 13.1668 75.0246 13.2255 75.0246 13.3429L75.0686 18.3186C75.0686 18.436 75.0099 18.4947 74.8925 18.4947H65.8218V26.2003H74.8925C75.0099 26.2003 75.0686 26.2737 75.0686 26.4205V31.4402C75.0686 31.5576 75.0099 31.6163 74.8925 31.6163H60.6701Z" fill="#20802F"/>
<path d="M77.0569 31.3962L82.5169 1.14599C82.5463 1.02857 82.6197 0.96986 82.7371 0.96986H89.1218C89.2392 0.96986 89.3126 1.02857 89.3419 1.14599L94.5818 31.3962C94.6111 31.5429 94.5524 31.6163 94.4057 31.6163H89.5181C89.4007 31.6163 89.3273 31.5429 89.2979 31.3962L88.8136 28.1818H82.8252L82.3408 31.3962C82.3115 31.5429 82.2381 31.6163 82.1207 31.6163H77.2331C77.1157 31.6163 77.0569 31.5429 77.0569 31.3962ZM83.7058 23.4703H87.9329L86.1276 11.0973L85.8634 9.46809L85.6873 11.0973L83.7058 23.4703Z" fill="#20802F"/>
<path d="M99.6414 31.6163C99.5239 31.6163 99.4652 31.5429 99.4652 31.3962V6.29776H93.741C93.5943 6.29776 93.5209 6.22438 93.5209 6.0776L93.5649 1.14599C93.5649 1.02857 93.6236 0.96986 93.741 0.96986H110.473C110.62 0.96986 110.693 1.02857 110.693 1.14599V6.0776C110.693 6.22438 110.635 6.29776 110.517 6.29776H104.749L104.793 31.3962C104.793 31.5429 104.734 31.6163 104.617 31.6163H99.6414Z" fill="#20802F"/>
<path d="M113.044 31.6163C112.927 31.6163 112.868 31.5429 112.868 31.3962L112.912 1.14599C112.912 1.02857 112.971 0.96986 113.088 0.96986H127.223C127.34 0.96986 127.399 1.04325 127.399 1.19002V6.12163C127.399 6.23905 127.34 6.29776 127.223 6.29776H118.196V13.1668H127.223C127.34 13.1668 127.399 13.2255 127.399 13.3429L127.443 18.3186C127.443 18.436 127.384 18.4947 127.267 18.4947H118.196V26.2003H127.267C127.384 26.2003 127.443 26.2737 127.443 26.4205V31.4402C127.443 31.5576 127.384 31.6163 127.267 31.6163H113.044Z" fill="#20802F"/>
<path d="M131.579 31.6163C131.432 31.6163 131.358 31.5429 131.358 31.3962L131.446 1.14599C131.446 1.02857 131.505 0.96986 131.623 0.96986L139.857 0.925828C141.471 0.896473 142.939 1.27809 144.26 2.07067C145.61 2.86325 146.682 3.9347 147.474 5.28502C148.267 6.60599 148.663 8.07373 148.663 9.68825V22.3255C148.663 24.0281 148.252 25.5839 147.43 26.9929C146.608 28.3726 145.507 29.4734 144.128 30.2953C142.748 31.1173 141.192 31.5429 139.46 31.5723L131.579 31.6163ZM136.73 26.2003H139.46C140.546 26.2003 141.456 25.8187 142.19 25.0555C142.954 24.2923 143.335 23.3823 143.335 22.3255V9.64422C143.335 8.70486 142.983 7.8976 142.278 7.22244C141.603 6.51793 140.796 6.18034 139.857 6.2097L136.774 6.25373L136.73 26.2003Z" fill="#20802F"/>
<path d="M152.304 31.6163C152.186 31.6163 152.127 31.5429 152.127 31.3962L152.172 1.19002C152.172 1.04325 152.245 0.96986 152.392 0.96986H157.279C157.426 0.96986 157.499 1.04325 157.499 1.19002L157.455 26.2003H166.526C166.673 26.2003 166.746 26.2737 166.746 26.4205V31.3962C166.746 31.5429 166.673 31.6163 166.526 31.6163H152.304Z" fill="#20802F"/>
<path d="M170.155 31.6163C170.066 31.6163 170.022 31.5576 170.022 31.4402L170.066 18.935L164.166 1.14599C164.137 1.02857 164.181 0.96986 164.298 0.96986H169.186C169.333 0.96986 169.421 1.02857 169.45 1.14599L172.708 12.9907L176.011 1.14599C176.04 1.02857 176.114 0.96986 176.231 0.96986H181.163C181.28 0.96986 181.324 1.02857 181.295 1.14599L175.35 18.7589L175.394 31.4402C175.394 31.5576 175.336 31.6163 175.218 31.6163H170.155Z" fill="#20802F"/>
</svg>
