<svg width="51" height="13" viewBox="0 0 51 13" fill="none" xmlns="http://www.w3.org/2000/svg">
<path d="M0.09 12.528C0.03 12.528 0 12.498 0 12.438L0.036 0.0720001C0.036 0.024 0.06 0 0.108 0H3.564C4.668 0 5.538 0.336 6.174 1.008C6.822 1.68 7.146 2.592 7.146 3.744C7.146 4.596 6.978 5.334 6.642 5.958C6.306 6.582 5.868 7.062 5.328 7.398C4.788 7.734 4.2 7.902 3.564 7.902H2.196V12.438C2.196 12.498 2.166 12.528 2.106 12.528H0.09ZM2.196 5.724H3.564C3.948 5.724 4.278 5.544 4.554 5.184C4.842 4.812 4.986 4.332 4.986 3.744C4.986 3.276 4.86 2.892 4.608 2.592C4.356 2.292 4.008 2.142 3.564 2.142L2.196 2.16V5.724Z" fill="white"/>
<path d="M8.29856 12.528C8.25056 12.528 8.22656 12.498 8.22656 12.438L8.24456 0.0899999C8.24456 0.03 8.27456 0 8.33456 0H10.3326C10.3926 0 10.4226 0.03 10.4226 0.0899999L10.4046 10.314H14.1126C14.1726 10.314 14.2026 10.344 14.2026 10.404V12.438C14.2026 12.498 14.1726 12.528 14.1126 12.528H8.29856Z" fill="white"/>
<path d="M14.7689 12.438L17.0009 0.0720001C17.0129 0.024 17.0429 0 17.0909 0H19.7009C19.7489 0 19.7789 0.024 19.7909 0.0720001L21.9329 12.438C21.9449 12.498 21.9209 12.528 21.8609 12.528H19.8629C19.8149 12.528 19.7849 12.498 19.7729 12.438L19.5749 11.124H17.1269L16.9289 12.438C16.9169 12.498 16.8869 12.528 16.8389 12.528H14.8409C14.7929 12.528 14.7689 12.498 14.7689 12.438ZM17.4869 9.198H19.2149L18.4769 4.14L18.3689 3.474L18.2969 4.14L17.4869 9.198Z" fill="white"/>
<path d="M23.9455 12.528C23.9095 12.528 23.8915 12.504 23.8915 12.456L23.9095 7.344L21.4975 0.0720001C21.4855 0.024 21.5035 0 21.5515 0H23.5495C23.6095 0 23.6455 0.024 23.6575 0.0720001L24.9895 4.914L26.3395 0.0720001C26.3515 0.024 26.3815 0 26.4295 0H28.4455C28.4935 0 28.5115 0.024 28.4995 0.0720001L26.0695 7.272L26.0875 12.456C26.0875 12.504 26.0635 12.528 26.0155 12.528H23.9455Z" fill="white"/>
<path d="M41.2361 0.492659C40.1438 -0.0925646 39.2581 0.386858 39.2581 1.56262V10.2393C39.2581 11.4162 40.1438 11.895 41.2361 11.3103L49.3561 6.96106C50.4489 6.37563 50.4489 5.42715 49.3561 4.84185L41.2361 0.492659Z" fill="white"/>
</svg>
