<svg width="124" height="37" viewBox="0 0 124 37" fill="none" xmlns="http://www.w3.org/2000/svg">
<path d="M0.320012 21C0.240012 21 0.200012 20.95 0.200012 20.85L0.260012 0.239999C0.260012 0.159999 0.300012 0.119999 0.380012 0.119999H6.44001C7.52001 0.119999 8.51001 0.389999 9.41001 0.93C10.33 1.45 11.06 2.16 11.6 3.06C12.14 3.94 12.41 4.94 12.41 6.06C12.41 6.8 12.3 7.47 12.08 8.07C11.86 8.65 11.6 9.15 11.3 9.57C11 9.97 10.73 10.27 10.49 10.47C11.57 11.67 12.11 13.08 12.11 14.7L12.14 20.85C12.14 20.95 12.09 21 11.99 21H8.60001C8.52001 21 8.48001 20.97 8.48001 20.91V14.7C8.48001 13.98 8.22001 13.36 7.70001 12.84C7.20001 12.3 6.58001 12.03 5.84001 12.03H3.86001L3.83001 20.85C3.83001 20.95 3.79001 21 3.71001 21H0.320012ZM3.86001 8.43H6.44001C7.06001 8.43 7.61001 8.2 8.09001 7.74C8.57001 7.28 8.81001 6.72 8.81001 6.06C8.81001 5.42 8.57001 4.87 8.09001 4.41C7.63001 3.95 7.08001 3.72 6.44001 3.72H3.86001V8.43Z" fill="#20802F"/>
<path d="M14.7927 21C14.7127 21 14.6727 20.95 14.6727 20.85L14.7027 0.239999C14.7027 0.159999 14.7427 0.119999 14.8227 0.119999H24.4527C24.5327 0.119999 24.5727 0.169999 24.5727 0.269999V3.63C24.5727 3.71 24.5327 3.75 24.4527 3.75H18.3027V8.43H24.4527C24.5327 8.43 24.5727 8.47 24.5727 8.55L24.6027 11.94C24.6027 12.02 24.5627 12.06 24.4827 12.06H18.3027V17.31H24.4827C24.5627 17.31 24.6027 17.36 24.6027 17.46V20.88C24.6027 20.96 24.5627 21 24.4827 21H14.7927Z" fill="#20802F"/>
<path d="M27.4203 21C27.3203 21 27.2703 20.95 27.2703 20.85L27.3303 0.239999C27.3303 0.159999 27.3703 0.119999 27.4503 0.119999H33.2103C35.0503 0.119999 36.5003 0.679999 37.5603 1.8C38.6403 2.92 39.1803 4.44 39.1803 6.36C39.1803 7.78 38.9003 9.01 38.3403 10.05C37.7803 11.09 37.0503 11.89 36.1503 12.45C35.2503 13.01 34.2703 13.29 33.2103 13.29H30.9303V20.85C30.9303 20.95 30.8803 21 30.7803 21H27.4203ZM30.9303 9.66H33.2103C33.8503 9.66 34.4003 9.36 34.8603 8.76C35.3403 8.14 35.5803 7.34 35.5803 6.36C35.5803 5.58 35.3703 4.94 34.9503 4.44C34.5303 3.94 33.9503 3.69 33.2103 3.69L30.9303 3.72V9.66Z" fill="#20802F"/>
<path d="M41.3356 21C41.2556 21 41.2156 20.95 41.2156 20.85L41.2456 0.239999C41.2456 0.159999 41.2856 0.119999 41.3656 0.119999H50.9956C51.0756 0.119999 51.1156 0.169999 51.1156 0.269999V3.63C51.1156 3.71 51.0756 3.75 50.9956 3.75H44.8456V8.43H50.9956C51.0756 8.43 51.1156 8.47 51.1156 8.55L51.1456 11.94C51.1456 12.02 51.1056 12.06 51.0256 12.06H44.8456V17.31H51.0256C51.1056 17.31 51.1456 17.36 51.1456 17.46V20.88C51.1456 20.96 51.1056 21 51.0256 21H41.3356Z" fill="#20802F"/>
<path d="M52.5003 20.85L56.2203 0.239999C56.2403 0.159999 56.2903 0.119999 56.3703 0.119999H60.7203C60.8003 0.119999 60.8503 0.159999 60.8703 0.239999L64.4403 20.85C64.4603 20.95 64.4203 21 64.3203 21H60.9903C60.9103 21 60.8603 20.95 60.8403 20.85L60.5103 18.66H56.4303L56.1003 20.85C56.0803 20.95 56.0303 21 55.9503 21H52.6203C52.5403 21 52.5003 20.95 52.5003 20.85ZM57.0303 15.45H59.9103L58.6803 7.02L58.5003 5.91L58.3803 7.02L57.0303 15.45Z" fill="#20802F"/>
<path d="M67.8875 21C67.8075 21 67.7675 20.95 67.7675 20.85V3.75H63.8675C63.7675 3.75 63.7175 3.7 63.7175 3.6L63.7475 0.239999C63.7475 0.159999 63.7875 0.119999 63.8675 0.119999H75.2675C75.3675 0.119999 75.4175 0.159999 75.4175 0.239999V3.6C75.4175 3.7 75.3775 3.75 75.2975 3.75H71.3675L71.3975 20.85C71.3975 20.95 71.3575 21 71.2775 21H67.8875Z" fill="#20802F"/>
<path d="M77.0192 21C76.9392 21 76.8992 20.95 76.8992 20.85L76.9292 0.239999C76.9292 0.159999 76.9692 0.119999 77.0492 0.119999H86.6792C86.7592 0.119999 86.7992 0.169999 86.7992 0.269999V3.63C86.7992 3.71 86.7592 3.75 86.6792 3.75H80.5292V8.43H86.6792C86.7592 8.43 86.7992 8.47 86.7992 8.55L86.8292 11.94C86.8292 12.02 86.7892 12.06 86.7092 12.06H80.5292V17.31H86.7092C86.7892 17.31 86.8292 17.36 86.8292 17.46V20.88C86.8292 20.96 86.7892 21 86.7092 21H77.0192Z" fill="#20802F"/>
<path d="M89.6469 21C89.5469 21 89.4969 20.95 89.4969 20.85L89.5569 0.239999C89.5569 0.159999 89.5969 0.119999 89.6769 0.119999L95.2869 0.0899996C96.3869 0.0699999 97.3869 0.33 98.2869 0.87C99.2069 1.41 99.9369 2.14 100.477 3.06C101.017 3.96 101.287 4.96 101.287 6.06V14.67C101.287 15.83 101.007 16.89 100.447 17.85C99.8869 18.79 99.1369 19.54 98.1969 20.1C97.2569 20.66 96.1969 20.95 95.0169 20.97L89.6469 21ZM93.1569 17.31H95.0169C95.7569 17.31 96.3769 17.05 96.8769 16.53C97.3969 16.01 97.6569 15.39 97.6569 14.67V6.03C97.6569 5.39 97.4169 4.84 96.9369 4.38C96.4769 3.9 95.9269 3.67 95.2869 3.69L93.1869 3.72L93.1569 17.31Z" fill="#20802F"/>
<path d="M103.767 21C103.687 21 103.647 20.95 103.647 20.85L103.677 0.269999C103.677 0.169999 103.727 0.119999 103.827 0.119999H107.157C107.257 0.119999 107.307 0.169999 107.307 0.269999L107.277 17.31H113.457C113.557 17.31 113.607 17.36 113.607 17.46V20.85C113.607 20.95 113.557 21 113.457 21H103.767Z" fill="#20802F"/>
<path d="M115.929 21C115.869 21 115.839 20.96 115.839 20.88L115.869 12.36L111.849 0.239999C111.829 0.159999 111.859 0.119999 111.939 0.119999H115.269C115.369 0.119999 115.429 0.159999 115.449 0.239999L117.669 8.31L119.919 0.239999C119.939 0.159999 119.989 0.119999 120.069 0.119999H123.429C123.509 0.119999 123.539 0.159999 123.519 0.239999L119.469 12.24L119.499 20.88C119.499 20.96 119.459 21 119.379 21H115.929Z" fill="#20802F"/>
<path d="M0 35H124" stroke="#38A248" stroke-width="4"/>
</svg>
